M48
INCH,LZ
;FILE_FORMAT=2:4
;TYPE=PLATED
;Layer: PTH_Through
;EasyEDA v6.5.51, 2026-03-09 22:52:25
;0745c895f26143998560ae4054ea86cb,b1bcf93fc2fa47b09c31a7f573604e75,10
;Gerber Generator version 0.2
;Holesize 1 = 0.0120 inch
T01C0.0120
;Holesize 2 = 0.0140 inch
T02C0.0140
;Holesize 3 = 0.0350 inch
T03C0.0350
;Holesize 4 = 0.0400 inch
T04C0.0400
%
G05
G90
T01
X011050Y052300
X009950Y050800
X010500Y052000
X010250Y050000
X010250Y049150
T02
X007300Y049750
X006700Y049750
X006700Y050350
X007300Y050350
X008050Y050400
X005667Y054360
X005667Y053360
X005667Y052360
X006667Y054360
X006667Y053360
X006667Y052360
X007667Y054360
X007667Y053360
X007667Y052360
X008667Y054360
X008667Y053360
X008667Y052360
X009667Y054360
X009667Y053360
X003142Y057358
X003142Y054358
X003142Y053358
X003142Y052358
X003142Y048358
X003142Y047358
X004142Y057358
X004142Y054358
X004142Y053358
X004142Y052358
X004142Y051358
X004142Y048358
X004142Y047358
X005142Y057358
X005142Y048358
X005142Y047358
X006142Y057358
X006142Y048358
X006142Y047358
X007142Y057358
X007142Y048358
X007142Y047358
X008142Y057358
X008142Y047358
X009142Y057358
X010142Y057358
X011142Y057358
X012142Y057358
T03
X008681Y047950
X009469Y047950
X010256Y047950
X011044Y047950
X011831Y047950
X012619Y047950
T04
X003550Y055150
X003550Y056150
X004550Y055150
X004550Y056150
X005550Y055150
X005550Y056150
X006550Y055150
X006550Y056150
X007550Y055150
X007550Y056150
X008550Y055150
X008550Y056150
X009550Y055150
X009550Y056150
X010550Y055150
X010550Y056150
X011550Y055150
X011550Y056150
X012550Y055150
X012550Y056150
M30
