G04 Layer: BottomLayer*
G04 EasyEDA v6.5.51, 2026-03-09 22:52:25*
G04 0745c895f26143998560ae4054ea86cb,b1bcf93fc2fa47b09c31a7f573604e75,10*
G04 Gerber Generator version 0.2*
G04 Scale: 100 percent, Rotated: No, Reflected: No *
G04 Dimensions in inches *
G04 leading zeros omitted , absolute positions ,3 integer and 6 decimal *
%FSLAX36Y36*%
%MOIN*%

%ADD10C,0.0150*%
%ADD11C,0.0100*%
%ADD12R,0.0591X0.0669*%
%ADD13C,0.0551*%
%ADD14R,0.0600X0.0551*%
%ADD15C,0.0630*%
%ADD16R,0.0630X0.0630*%
%ADD17R,0.0104X0.0630*%
%ADD18C,0.0244*%
%ADD19C,0.0280*%

%LPD*%
G36*
X368880Y4650200D02*
G01*
X360640Y4650560D01*
X352980Y4651520D01*
X345439Y4653120D01*
X338060Y4655320D01*
X330880Y4658140D01*
X323960Y4661540D01*
X317340Y4665500D01*
X311080Y4669980D01*
X305200Y4674980D01*
X299760Y4680440D01*
X294780Y4686340D01*
X290320Y4692620D01*
X286380Y4699240D01*
X283000Y4706180D01*
X280220Y4713360D01*
X278040Y4720760D01*
X276460Y4728300D01*
X275520Y4735960D01*
X275200Y4743880D01*
X275200Y5681120D01*
X275560Y5689360D01*
X276520Y5697020D01*
X278120Y5704560D01*
X280320Y5711940D01*
X283140Y5719120D01*
X286540Y5726040D01*
X290500Y5732660D01*
X295000Y5738920D01*
X299980Y5744800D01*
X305440Y5750240D01*
X311340Y5755220D01*
X317620Y5759680D01*
X324240Y5763620D01*
X331180Y5767000D01*
X338360Y5769779D01*
X345760Y5771960D01*
X353300Y5773540D01*
X360959Y5774480D01*
X368880Y5774800D01*
X1236120Y5774800D01*
X1244360Y5774440D01*
X1252020Y5773480D01*
X1259560Y5771880D01*
X1266940Y5769680D01*
X1274120Y5766860D01*
X1281040Y5763460D01*
X1287660Y5759500D01*
X1293920Y5755000D01*
X1299800Y5750019D01*
X1305240Y5744560D01*
X1310220Y5738660D01*
X1314680Y5732380D01*
X1318620Y5725760D01*
X1322000Y5718819D01*
X1324780Y5711640D01*
X1326960Y5704240D01*
X1328540Y5696700D01*
X1329480Y5689040D01*
X1329800Y5681120D01*
X1329800Y4743880D01*
X1329440Y4735640D01*
X1328480Y4727980D01*
X1326879Y4720440D01*
X1324680Y4713060D01*
X1321860Y4705880D01*
X1318460Y4698960D01*
X1314500Y4692340D01*
X1310680Y4687000D01*
X1309460Y4685880D01*
X1307860Y4685340D01*
X1306200Y4685520D01*
X1304760Y4686340D01*
X1303779Y4687680D01*
X1303420Y4689320D01*
X1303420Y4728260D01*
X1303120Y4731420D01*
X1302260Y4734280D01*
X1300860Y4736900D01*
X1298959Y4739200D01*
X1296660Y4741080D01*
X1294040Y4742480D01*
X1291620Y4743220D01*
X1290200Y4744000D01*
X1289199Y4745260D01*
X1288380Y4747340D01*
X1288380Y4748560D01*
X1288920Y4750100D01*
X1289720Y4751180D01*
X1290820Y4751940D01*
X1292100Y4752280D01*
X1294820Y4752560D01*
X1297660Y4753420D01*
X1300280Y4754820D01*
X1302580Y4756700D01*
X1304480Y4759000D01*
X1305880Y4761640D01*
X1306740Y4764480D01*
X1307060Y4767640D01*
X1307060Y4822360D01*
X1306740Y4825520D01*
X1305880Y4828360D01*
X1304480Y4831000D01*
X1302580Y4833300D01*
X1300280Y4835180D01*
X1297660Y4836580D01*
X1294820Y4837440D01*
X1291660Y4837760D01*
X1232040Y4837760D01*
X1228880Y4837440D01*
X1226040Y4836580D01*
X1223420Y4835180D01*
X1221120Y4833300D01*
X1219220Y4831000D01*
X1217980Y4828660D01*
X1216980Y4827440D01*
X1215600Y4826720D01*
X1214040Y4826560D01*
X1212560Y4827020D01*
X1211340Y4828020D01*
X1204200Y4836820D01*
X1203540Y4838000D01*
X1203300Y4839340D01*
X1203300Y5196820D01*
X1203220Y5198660D01*
X1202980Y5200400D01*
X1202600Y5202120D01*
X1202080Y5203800D01*
X1201400Y5205440D01*
X1200600Y5207000D01*
X1199640Y5208480D01*
X1198580Y5209880D01*
X1197320Y5211240D01*
X1126380Y5282200D01*
X1125500Y5283500D01*
X1125200Y5285019D01*
X1125200Y5471460D01*
X1125540Y5473099D01*
X1126520Y5474440D01*
X1127960Y5475280D01*
X1129620Y5475440D01*
X1131200Y5474940D01*
X1134180Y5473200D01*
X1139480Y5470960D01*
X1145020Y5469400D01*
X1150700Y5468520D01*
X1156440Y5468339D01*
X1162160Y5468860D01*
X1167780Y5470100D01*
X1173200Y5472000D01*
X1178340Y5474560D01*
X1183140Y5477740D01*
X1187500Y5481480D01*
X1191380Y5485720D01*
X1194700Y5490420D01*
X1197420Y5495480D01*
X1199500Y5500839D01*
X1200900Y5506420D01*
X1201600Y5512120D01*
X1201600Y5517880D01*
X1200900Y5523579D01*
X1199500Y5529160D01*
X1197420Y5534520D01*
X1194700Y5539580D01*
X1191380Y5544280D01*
X1187500Y5548520D01*
X1183140Y5552260D01*
X1178340Y5555440D01*
X1173200Y5558000D01*
X1167780Y5559900D01*
X1162360Y5561100D01*
X1160940Y5561700D01*
X1159880Y5562800D01*
X1159280Y5564240D01*
X1159280Y5565760D01*
X1159880Y5567200D01*
X1160940Y5568300D01*
X1162360Y5568900D01*
X1167780Y5570100D01*
X1173200Y5572000D01*
X1178340Y5574560D01*
X1183140Y5577740D01*
X1187500Y5581480D01*
X1191380Y5585720D01*
X1194700Y5590420D01*
X1197420Y5595480D01*
X1199500Y5600839D01*
X1200420Y5604560D01*
X1201140Y5606040D01*
X1202400Y5607100D01*
X1203980Y5607560D01*
X1205600Y5607360D01*
X1207020Y5606520D01*
X1207960Y5605180D01*
X1208300Y5603579D01*
X1208300Y5583700D01*
X1208620Y5580540D01*
X1209480Y5577700D01*
X1210880Y5575080D01*
X1212760Y5572760D01*
X1215080Y5570880D01*
X1217700Y5569480D01*
X1220540Y5568620D01*
X1223700Y5568300D01*
X1286300Y5568300D01*
X1289460Y5568620D01*
X1292300Y5569480D01*
X1294920Y5570880D01*
X1297240Y5572760D01*
X1299120Y5575080D01*
X1300520Y5577700D01*
X1301380Y5580540D01*
X1301699Y5583700D01*
X1301699Y5646300D01*
X1301380Y5649460D01*
X1300520Y5652300D01*
X1299120Y5654920D01*
X1297240Y5657240D01*
X1294920Y5659120D01*
X1292300Y5660520D01*
X1289460Y5661380D01*
X1286300Y5661700D01*
X1223700Y5661700D01*
X1220540Y5661380D01*
X1217700Y5660520D01*
X1215080Y5659120D01*
X1212760Y5657240D01*
X1210880Y5654920D01*
X1209480Y5652300D01*
X1208620Y5649460D01*
X1208300Y5646300D01*
X1208300Y5626420D01*
X1207960Y5624820D01*
X1207020Y5623480D01*
X1205600Y5622640D01*
X1203980Y5622440D01*
X1202400Y5622900D01*
X1201140Y5623960D01*
X1200420Y5625440D01*
X1199500Y5629160D01*
X1197420Y5634520D01*
X1194700Y5639580D01*
X1191380Y5644280D01*
X1187500Y5648520D01*
X1183140Y5652260D01*
X1178340Y5655440D01*
X1173200Y5658000D01*
X1167780Y5659900D01*
X1162160Y5661140D01*
X1156440Y5661660D01*
X1150700Y5661480D01*
X1145020Y5660599D01*
X1139480Y5659040D01*
X1134180Y5656799D01*
X1129220Y5653920D01*
X1124620Y5650460D01*
X1120500Y5646460D01*
X1116900Y5641980D01*
X1113860Y5637080D01*
X1111460Y5631860D01*
X1109720Y5626380D01*
X1108940Y5622180D01*
X1108320Y5620700D01*
X1107180Y5619580D01*
X1105680Y5618980D01*
X1104080Y5619040D01*
X1102620Y5619720D01*
X1101540Y5620900D01*
X1101040Y5622440D01*
X1100900Y5623579D01*
X1099500Y5629160D01*
X1097420Y5634520D01*
X1094700Y5639580D01*
X1091380Y5644280D01*
X1087500Y5648520D01*
X1083140Y5652260D01*
X1078340Y5655440D01*
X1073200Y5658000D01*
X1067780Y5659900D01*
X1062160Y5661140D01*
X1056440Y5661660D01*
X1050700Y5661480D01*
X1045020Y5660599D01*
X1039479Y5659040D01*
X1034180Y5656799D01*
X1029220Y5653920D01*
X1024620Y5650460D01*
X1020500Y5646460D01*
X1016900Y5641980D01*
X1013860Y5637080D01*
X1011460Y5631860D01*
X1009720Y5626380D01*
X1008940Y5622180D01*
X1008319Y5620700D01*
X1007180Y5619580D01*
X1005680Y5618980D01*
X1004080Y5619040D01*
X1002620Y5619720D01*
X1001540Y5620900D01*
X1001040Y5622440D01*
X1000900Y5623579D01*
X999500Y5629160D01*
X997420Y5634520D01*
X994700Y5639580D01*
X991380Y5644280D01*
X987500Y5648520D01*
X983139Y5652260D01*
X978340Y5655440D01*
X973199Y5658000D01*
X967780Y5659900D01*
X962159Y5661140D01*
X956440Y5661660D01*
X950699Y5661480D01*
X945020Y5660599D01*
X939479Y5659040D01*
X934180Y5656799D01*
X929220Y5653920D01*
X924620Y5650460D01*
X920500Y5646460D01*
X916900Y5641980D01*
X913860Y5637080D01*
X911460Y5631860D01*
X909720Y5626380D01*
X908940Y5622180D01*
X908319Y5620700D01*
X907180Y5619580D01*
X905680Y5618980D01*
X904080Y5619040D01*
X902620Y5619720D01*
X901540Y5620900D01*
X901040Y5622440D01*
X900900Y5623579D01*
X899500Y5629160D01*
X897420Y5634520D01*
X894700Y5639580D01*
X891380Y5644280D01*
X887500Y5648520D01*
X883139Y5652260D01*
X878340Y5655440D01*
X873199Y5658000D01*
X867780Y5659900D01*
X862159Y5661140D01*
X856440Y5661660D01*
X850699Y5661480D01*
X845020Y5660599D01*
X839479Y5659040D01*
X834180Y5656799D01*
X829220Y5653920D01*
X824620Y5650460D01*
X820500Y5646460D01*
X816900Y5641980D01*
X813860Y5637080D01*
X811460Y5631860D01*
X809720Y5626380D01*
X808940Y5622180D01*
X808319Y5620700D01*
X807180Y5619580D01*
X805680Y5618980D01*
X804080Y5619040D01*
X802620Y5619720D01*
X801540Y5620900D01*
X801040Y5622440D01*
X800900Y5623579D01*
X799500Y5629160D01*
X797420Y5634520D01*
X794700Y5639580D01*
X791380Y5644280D01*
X787500Y5648520D01*
X783139Y5652260D01*
X778340Y5655440D01*
X773199Y5658000D01*
X767780Y5659900D01*
X762159Y5661140D01*
X756440Y5661660D01*
X750699Y5661480D01*
X745020Y5660599D01*
X739479Y5659040D01*
X734180Y5656799D01*
X729220Y5653920D01*
X724620Y5650460D01*
X720500Y5646460D01*
X716900Y5641980D01*
X713860Y5637080D01*
X711460Y5631860D01*
X709720Y5626380D01*
X708940Y5622180D01*
X708319Y5620700D01*
X707180Y5619580D01*
X705680Y5618980D01*
X704080Y5619040D01*
X702620Y5619720D01*
X701540Y5620900D01*
X701040Y5622440D01*
X700900Y5623579D01*
X699500Y5629160D01*
X697420Y5634520D01*
X694700Y5639580D01*
X691380Y5644280D01*
X687500Y5648520D01*
X683139Y5652260D01*
X678340Y5655440D01*
X673199Y5658000D01*
X667780Y5659900D01*
X662159Y5661140D01*
X656440Y5661660D01*
X650699Y5661480D01*
X645020Y5660599D01*
X639480Y5659040D01*
X634180Y5656799D01*
X629220Y5653920D01*
X624620Y5650460D01*
X620500Y5646460D01*
X616900Y5641980D01*
X613860Y5637080D01*
X611460Y5631860D01*
X609720Y5626380D01*
X608940Y5622180D01*
X608320Y5620700D01*
X607180Y5619580D01*
X605680Y5618980D01*
X604080Y5619040D01*
X602620Y5619720D01*
X601540Y5620900D01*
X601040Y5622440D01*
X600900Y5623579D01*
X599500Y5629160D01*
X597420Y5634520D01*
X594700Y5639580D01*
X591380Y5644280D01*
X587500Y5648520D01*
X583140Y5652260D01*
X578340Y5655440D01*
X573200Y5658000D01*
X567780Y5659900D01*
X562160Y5661140D01*
X556440Y5661660D01*
X550700Y5661480D01*
X545020Y5660599D01*
X539480Y5659040D01*
X534180Y5656799D01*
X529220Y5653920D01*
X524620Y5650460D01*
X520500Y5646460D01*
X516900Y5641980D01*
X513860Y5637080D01*
X511460Y5631860D01*
X509720Y5626380D01*
X508940Y5622180D01*
X508320Y5620700D01*
X507180Y5619580D01*
X505680Y5618980D01*
X504080Y5619040D01*
X502620Y5619720D01*
X501540Y5620900D01*
X501040Y5622440D01*
X500900Y5623579D01*
X499500Y5629160D01*
X497420Y5634520D01*
X494700Y5639580D01*
X491380Y5644280D01*
X487500Y5648520D01*
X483140Y5652260D01*
X478340Y5655440D01*
X473200Y5658000D01*
X467780Y5659900D01*
X462160Y5661140D01*
X456440Y5661660D01*
X450700Y5661480D01*
X445020Y5660599D01*
X439480Y5659040D01*
X434180Y5656799D01*
X429219Y5653920D01*
X424620Y5650460D01*
X420500Y5646460D01*
X416900Y5641980D01*
X413860Y5637080D01*
X411460Y5631860D01*
X409720Y5626380D01*
X408660Y5620740D01*
X408320Y5615000D01*
X408660Y5609260D01*
X409720Y5603620D01*
X411460Y5598140D01*
X413860Y5592920D01*
X416900Y5588020D01*
X420500Y5583540D01*
X424620Y5579539D01*
X429219Y5576079D01*
X434180Y5573200D01*
X439480Y5570960D01*
X445020Y5569400D01*
X447840Y5568960D01*
X449360Y5568400D01*
X450520Y5567279D01*
X451160Y5565800D01*
X451160Y5564200D01*
X450520Y5562720D01*
X449360Y5561600D01*
X447840Y5561040D01*
X445020Y5560599D01*
X439480Y5559040D01*
X434180Y5556799D01*
X429219Y5553920D01*
X424620Y5550460D01*
X420500Y5546460D01*
X416900Y5541980D01*
X413860Y5537080D01*
X411460Y5531860D01*
X409720Y5526380D01*
X408660Y5520740D01*
X408320Y5515000D01*
X408660Y5509260D01*
X409720Y5503620D01*
X411460Y5498140D01*
X413860Y5492920D01*
X416900Y5488020D01*
X420500Y5483540D01*
X424620Y5479539D01*
X429219Y5476079D01*
X434180Y5473200D01*
X439480Y5470960D01*
X445020Y5469400D01*
X450700Y5468520D01*
X456440Y5468339D01*
X462160Y5468860D01*
X467780Y5470100D01*
X473200Y5472000D01*
X478340Y5474560D01*
X483140Y5477740D01*
X487500Y5481480D01*
X491380Y5485720D01*
X494700Y5490420D01*
X497420Y5495480D01*
X499500Y5500839D01*
X500900Y5506420D01*
X501040Y5507560D01*
X501540Y5509100D01*
X502620Y5510280D01*
X504080Y5510960D01*
X505680Y5511020D01*
X507180Y5510420D01*
X508320Y5509299D01*
X508940Y5507820D01*
X509720Y5503620D01*
X511460Y5498140D01*
X513860Y5492920D01*
X516900Y5488020D01*
X520500Y5483540D01*
X524620Y5479539D01*
X529220Y5476079D01*
X534180Y5473200D01*
X539480Y5470960D01*
X545020Y5469400D01*
X550700Y5468520D01*
X556440Y5468339D01*
X562160Y5468860D01*
X567780Y5470100D01*
X573200Y5472000D01*
X578340Y5474560D01*
X583140Y5477740D01*
X587500Y5481480D01*
X591380Y5485720D01*
X594700Y5490420D01*
X597420Y5495480D01*
X599500Y5500839D01*
X600900Y5506420D01*
X601600Y5512120D01*
X601600Y5517880D01*
X600900Y5523579D01*
X599500Y5529160D01*
X597420Y5534520D01*
X594700Y5539580D01*
X591380Y5544280D01*
X587500Y5548520D01*
X583140Y5552260D01*
X578340Y5555440D01*
X573200Y5558000D01*
X567780Y5559900D01*
X562360Y5561100D01*
X560940Y5561700D01*
X559880Y5562800D01*
X559280Y5564240D01*
X559280Y5565760D01*
X559880Y5567200D01*
X560940Y5568300D01*
X562360Y5568900D01*
X567780Y5570100D01*
X573200Y5572000D01*
X578340Y5574560D01*
X583140Y5577740D01*
X587500Y5581480D01*
X591380Y5585720D01*
X594700Y5590420D01*
X597420Y5595480D01*
X599500Y5600839D01*
X600900Y5606420D01*
X601040Y5607560D01*
X601540Y5609100D01*
X602620Y5610280D01*
X604080Y5610960D01*
X605680Y5611020D01*
X607180Y5610420D01*
X608320Y5609299D01*
X608940Y5607820D01*
X609720Y5603620D01*
X611460Y5598140D01*
X613860Y5592920D01*
X616900Y5588020D01*
X620500Y5583540D01*
X624620Y5579539D01*
X629220Y5576079D01*
X634180Y5573200D01*
X639480Y5570960D01*
X645020Y5569400D01*
X650699Y5568520D01*
X656440Y5568339D01*
X662159Y5568860D01*
X667780Y5570100D01*
X673199Y5572000D01*
X678340Y5574560D01*
X683139Y5577740D01*
X687500Y5581480D01*
X691380Y5585720D01*
X694700Y5590420D01*
X697420Y5595480D01*
X699500Y5600839D01*
X700900Y5606420D01*
X701040Y5607560D01*
X701540Y5609100D01*
X702620Y5610280D01*
X704080Y5610960D01*
X705680Y5611020D01*
X707180Y5610420D01*
X708319Y5609299D01*
X708940Y5607820D01*
X709720Y5603620D01*
X711460Y5598140D01*
X713860Y5592920D01*
X716900Y5588020D01*
X720500Y5583540D01*
X724620Y5579539D01*
X729220Y5576079D01*
X734180Y5573200D01*
X739479Y5570960D01*
X745020Y5569400D01*
X747840Y5568960D01*
X749360Y5568400D01*
X750520Y5567279D01*
X751160Y5565800D01*
X751160Y5564200D01*
X750520Y5562720D01*
X749360Y5561600D01*
X747840Y5561040D01*
X745020Y5560599D01*
X739479Y5559040D01*
X734180Y5556799D01*
X729220Y5553920D01*
X724620Y5550460D01*
X720500Y5546460D01*
X716900Y5541980D01*
X713860Y5537080D01*
X711460Y5531860D01*
X709720Y5526380D01*
X708660Y5520740D01*
X708319Y5515000D01*
X708660Y5509260D01*
X709720Y5503620D01*
X711460Y5498140D01*
X713860Y5492920D01*
X716900Y5488020D01*
X720500Y5483540D01*
X724620Y5479539D01*
X729220Y5476079D01*
X734180Y5473200D01*
X739479Y5470960D01*
X745020Y5469400D01*
X750699Y5468520D01*
X756440Y5468339D01*
X762159Y5468860D01*
X767780Y5470100D01*
X773199Y5472000D01*
X778340Y5474560D01*
X783139Y5477740D01*
X787500Y5481480D01*
X791380Y5485720D01*
X794700Y5490420D01*
X797420Y5495480D01*
X799500Y5500839D01*
X800900Y5506420D01*
X801040Y5507560D01*
X801540Y5509100D01*
X802620Y5510280D01*
X804080Y5510960D01*
X805680Y5511020D01*
X807180Y5510420D01*
X808319Y5509299D01*
X808940Y5507820D01*
X809720Y5503620D01*
X811460Y5498140D01*
X813860Y5492920D01*
X816900Y5488020D01*
X820500Y5483540D01*
X824620Y5479539D01*
X829220Y5476079D01*
X834180Y5473200D01*
X839479Y5470960D01*
X845020Y5469400D01*
X850699Y5468520D01*
X856440Y5468339D01*
X862159Y5468860D01*
X867780Y5470100D01*
X873199Y5472000D01*
X878340Y5474560D01*
X883139Y5477740D01*
X887500Y5481480D01*
X891380Y5485720D01*
X894700Y5490420D01*
X897420Y5495480D01*
X899500Y5500839D01*
X900900Y5506420D01*
X901600Y5512120D01*
X901600Y5517880D01*
X900900Y5523579D01*
X899500Y5529160D01*
X897420Y5534520D01*
X894700Y5539580D01*
X891380Y5544280D01*
X887500Y5548520D01*
X883139Y5552260D01*
X878340Y5555440D01*
X873199Y5558000D01*
X867780Y5559900D01*
X862360Y5561100D01*
X860939Y5561700D01*
X859880Y5562800D01*
X859280Y5564240D01*
X859280Y5565760D01*
X859880Y5567200D01*
X860939Y5568300D01*
X862360Y5568900D01*
X867780Y5570100D01*
X873199Y5572000D01*
X878340Y5574560D01*
X883139Y5577740D01*
X887500Y5581480D01*
X891380Y5585720D01*
X894700Y5590420D01*
X897420Y5595480D01*
X899500Y5600839D01*
X900900Y5606420D01*
X901040Y5607560D01*
X901540Y5609100D01*
X902620Y5610280D01*
X904080Y5610960D01*
X905680Y5611020D01*
X907180Y5610420D01*
X908319Y5609299D01*
X908940Y5607820D01*
X909720Y5603620D01*
X911460Y5598140D01*
X913860Y5592920D01*
X916900Y5588020D01*
X920500Y5583540D01*
X924620Y5579539D01*
X929220Y5576079D01*
X934180Y5573200D01*
X939479Y5570960D01*
X945020Y5569400D01*
X950800Y5568500D01*
X969580Y5566920D01*
X970939Y5566540D01*
X972180Y5566700D01*
X973520Y5566580D01*
X974860Y5566220D01*
X976560Y5564880D01*
X977400Y5563620D01*
X977720Y5562120D01*
X977460Y5560599D01*
X976640Y5559320D01*
X975400Y5558420D01*
X973900Y5558060D01*
X973240Y5558160D01*
X973240Y5533240D01*
X980800Y5533240D01*
X982340Y5532940D01*
X983620Y5532080D01*
X984500Y5530780D01*
X984800Y5529240D01*
X984800Y5500760D01*
X984500Y5499220D01*
X983620Y5497920D01*
X982340Y5497060D01*
X980800Y5496760D01*
X973240Y5496760D01*
X973240Y5472020D01*
X978340Y5474560D01*
X980180Y5475340D01*
X981900Y5475240D01*
X983400Y5474440D01*
X984440Y5473060D01*
X984800Y5471400D01*
X984800Y5255019D01*
X984500Y5253500D01*
X983620Y5252200D01*
X945780Y5214340D01*
X944520Y5212980D01*
X943460Y5211580D01*
X942500Y5210100D01*
X941700Y5208540D01*
X941020Y5206900D01*
X940500Y5205220D01*
X940120Y5203500D01*
X939880Y5201760D01*
X939800Y5199920D01*
X939800Y4980080D01*
X939880Y4978240D01*
X940120Y4976500D01*
X940500Y4974780D01*
X941020Y4973100D01*
X941700Y4971460D01*
X942500Y4969900D01*
X943460Y4968420D01*
X944520Y4967020D01*
X945780Y4965660D01*
X995840Y4915600D01*
X996800Y4914060D01*
X997960Y4910600D01*
X998940Y4906540D01*
X1000600Y4902560D01*
X1002840Y4898900D01*
X1005639Y4895640D01*
X1008900Y4892840D01*
X1012560Y4890600D01*
X1016540Y4888940D01*
X1020720Y4887940D01*
X1025000Y4887600D01*
X1029280Y4887940D01*
X1033460Y4888940D01*
X1037440Y4890600D01*
X1041100Y4892840D01*
X1044360Y4895640D01*
X1047159Y4898900D01*
X1049400Y4902560D01*
X1051060Y4906540D01*
X1052060Y4910720D01*
X1052400Y4915000D01*
X1052060Y4919280D01*
X1051060Y4923460D01*
X1049400Y4927440D01*
X1047159Y4931100D01*
X1044360Y4934360D01*
X1041100Y4937160D01*
X1037440Y4939400D01*
X1033460Y4941060D01*
X1029020Y4942140D01*
X1025939Y4943200D01*
X1024400Y4944160D01*
X981380Y4987200D01*
X980500Y4988500D01*
X980200Y4990020D01*
X980200Y5050580D01*
X980500Y5052120D01*
X981380Y5053420D01*
X982660Y5054280D01*
X984200Y5054580D01*
X985740Y5054280D01*
X986540Y5053940D01*
X990720Y5052940D01*
X995000Y5052600D01*
X1001300Y5053160D01*
X1002680Y5052720D01*
X1003800Y5051840D01*
X1004539Y5050600D01*
X1004800Y5049200D01*
X1004800Y5021040D01*
X1004400Y5019280D01*
X1002780Y5016000D01*
X1000600Y5012440D01*
X998940Y5008460D01*
X997940Y5004280D01*
X997600Y5000000D01*
X997940Y4995720D01*
X998940Y4991540D01*
X1000600Y4987560D01*
X1002840Y4983900D01*
X1005639Y4980640D01*
X1008900Y4977840D01*
X1012560Y4975600D01*
X1016540Y4973940D01*
X1020720Y4972940D01*
X1025000Y4972600D01*
X1029280Y4972940D01*
X1033460Y4973940D01*
X1037440Y4975600D01*
X1041100Y4977840D01*
X1044360Y4980640D01*
X1047159Y4983900D01*
X1049400Y4987560D01*
X1051060Y4991540D01*
X1052060Y4995720D01*
X1052400Y5000000D01*
X1052060Y5004280D01*
X1051060Y5008460D01*
X1049400Y5012440D01*
X1047039Y5016340D01*
X1045600Y5019280D01*
X1045200Y5021040D01*
X1045200Y5164980D01*
X1045500Y5166500D01*
X1046380Y5167800D01*
X1049400Y5170839D01*
X1050940Y5171799D01*
X1054400Y5172960D01*
X1058460Y5173940D01*
X1062440Y5175599D01*
X1066100Y5177840D01*
X1069360Y5180640D01*
X1072160Y5183900D01*
X1074400Y5187560D01*
X1076060Y5191540D01*
X1077060Y5195720D01*
X1077400Y5200000D01*
X1076840Y5206300D01*
X1077280Y5207680D01*
X1078160Y5208800D01*
X1079400Y5209539D01*
X1080800Y5209800D01*
X1083960Y5209800D01*
X1085720Y5209400D01*
X1089000Y5207780D01*
X1092560Y5205599D01*
X1096540Y5203940D01*
X1100720Y5202940D01*
X1105000Y5202600D01*
X1109280Y5202940D01*
X1113460Y5203940D01*
X1117440Y5205599D01*
X1121100Y5207840D01*
X1124360Y5210640D01*
X1127160Y5213900D01*
X1128460Y5216000D01*
X1129420Y5217080D01*
X1130680Y5217740D01*
X1132120Y5217900D01*
X1133500Y5217560D01*
X1134700Y5216740D01*
X1161720Y5189700D01*
X1162600Y5188400D01*
X1162900Y5186880D01*
X1162900Y4839340D01*
X1162660Y4838000D01*
X1162000Y4836800D01*
X1148880Y4820620D01*
X1147140Y4817940D01*
X1145980Y4816780D01*
X1144460Y4816180D01*
X1142840Y4816220D01*
X1141360Y4816920D01*
X1140200Y4818320D01*
X1136920Y4822720D01*
X1133120Y4826640D01*
X1128820Y4830060D01*
X1124140Y4832900D01*
X1119140Y4835120D01*
X1113880Y4836680D01*
X1108480Y4837560D01*
X1103000Y4837720D01*
X1097540Y4837200D01*
X1092200Y4835980D01*
X1087060Y4834100D01*
X1082200Y4831560D01*
X1077720Y4828420D01*
X1073660Y4824740D01*
X1070100Y4820560D01*
X1068400Y4817940D01*
X1067240Y4816780D01*
X1065720Y4816180D01*
X1064100Y4816220D01*
X1062620Y4816920D01*
X1061460Y4818320D01*
X1058180Y4822720D01*
X1054380Y4826640D01*
X1050080Y4830060D01*
X1045400Y4832900D01*
X1041900Y4834440D01*
X1041900Y4811280D01*
X1059280Y4811280D01*
X1060760Y4811000D01*
X1062020Y4810180D01*
X1062900Y4808960D01*
X1063280Y4807520D01*
X1061980Y4800460D01*
X1061620Y4795000D01*
X1061980Y4789540D01*
X1063080Y4783980D01*
X1063280Y4782480D01*
X1062900Y4781040D01*
X1062020Y4779820D01*
X1060760Y4779000D01*
X1059280Y4778720D01*
X1041900Y4778720D01*
X1041900Y4755560D01*
X1045400Y4757100D01*
X1050080Y4759940D01*
X1054380Y4763360D01*
X1058180Y4767280D01*
X1061560Y4771840D01*
X1062620Y4773080D01*
X1064100Y4773780D01*
X1065720Y4773820D01*
X1067240Y4773220D01*
X1068400Y4772060D01*
X1070100Y4769440D01*
X1071240Y4768080D01*
X1079840Y4755480D01*
X1080420Y4754180D01*
X1080500Y4752780D01*
X1080100Y4751440D01*
X1077340Y4745880D01*
X1076440Y4744700D01*
X1075200Y4743940D01*
X1073760Y4743660D01*
X1071900Y4743660D01*
X1068740Y4743360D01*
X1065880Y4742480D01*
X1063740Y4741340D01*
X1062500Y4740920D01*
X1061200Y4740920D01*
X1059960Y4741340D01*
X1057820Y4742480D01*
X1054980Y4743360D01*
X1051820Y4743660D01*
X1039740Y4743660D01*
X1039740Y4714240D01*
X1052500Y4714240D01*
X1054020Y4713920D01*
X1055320Y4713060D01*
X1056180Y4711760D01*
X1056500Y4710240D01*
X1056500Y4679760D01*
X1056180Y4678240D01*
X1055320Y4676940D01*
X1054020Y4676080D01*
X1052500Y4675760D01*
X1039740Y4675760D01*
X1039740Y4654200D01*
X1039440Y4652660D01*
X1038580Y4651380D01*
X1037280Y4650500D01*
X1035740Y4650200D01*
X1009220Y4650200D01*
X1007680Y4650500D01*
X1006380Y4651380D01*
X1005520Y4652660D01*
X1005220Y4654200D01*
X1005220Y4675760D01*
X992460Y4675760D01*
X990939Y4676080D01*
X989640Y4676940D01*
X988780Y4678240D01*
X988460Y4679760D01*
X988460Y4710240D01*
X988780Y4711760D01*
X989640Y4713060D01*
X990939Y4713920D01*
X992460Y4714240D01*
X1005220Y4714240D01*
X1005220Y4743660D01*
X993160Y4743660D01*
X990000Y4743360D01*
X987140Y4742480D01*
X985000Y4741340D01*
X983760Y4740920D01*
X982460Y4740920D01*
X981220Y4741340D01*
X979080Y4742480D01*
X976640Y4743220D01*
X975240Y4744000D01*
X974240Y4745260D01*
X971160Y4751440D01*
X970759Y4752780D01*
X970840Y4754180D01*
X971420Y4755480D01*
X980040Y4768100D01*
X982820Y4771840D01*
X983880Y4773080D01*
X985360Y4773780D01*
X986979Y4773820D01*
X988500Y4773220D01*
X989659Y4772060D01*
X991360Y4769440D01*
X994920Y4765260D01*
X998980Y4761580D01*
X1003460Y4758440D01*
X1008319Y4755900D01*
X1009360Y4755540D01*
X1009360Y4778720D01*
X991900Y4778720D01*
X990480Y4778980D01*
X989240Y4779740D01*
X988360Y4780900D01*
X987940Y4782280D01*
X988040Y4783740D01*
X988860Y4786820D01*
X989560Y4792260D01*
X989560Y4797740D01*
X988860Y4803180D01*
X988040Y4806260D01*
X987940Y4807720D01*
X988360Y4809100D01*
X989240Y4810260D01*
X990480Y4811020D01*
X991900Y4811280D01*
X1009360Y4811280D01*
X1009360Y4834460D01*
X1008319Y4834100D01*
X1003460Y4831560D01*
X998980Y4828420D01*
X994920Y4824740D01*
X991360Y4820560D01*
X989659Y4817940D01*
X988500Y4816780D01*
X986979Y4816180D01*
X985360Y4816220D01*
X983880Y4816920D01*
X982720Y4818320D01*
X979440Y4822720D01*
X975639Y4826640D01*
X971340Y4830060D01*
X966660Y4832900D01*
X961660Y4835120D01*
X956400Y4836680D01*
X951000Y4837560D01*
X945520Y4837720D01*
X940060Y4837200D01*
X934720Y4835980D01*
X929580Y4834100D01*
X924720Y4831560D01*
X920240Y4828420D01*
X916180Y4824740D01*
X912620Y4820560D01*
X910920Y4817940D01*
X909760Y4816780D01*
X908240Y4816180D01*
X906620Y4816220D01*
X905140Y4816920D01*
X903980Y4818320D01*
X900699Y4822720D01*
X896900Y4826640D01*
X892600Y4830060D01*
X887920Y4832900D01*
X882920Y4835120D01*
X877660Y4836680D01*
X872260Y4837560D01*
X866780Y4837720D01*
X861320Y4837200D01*
X855980Y4835980D01*
X850840Y4834100D01*
X845980Y4831560D01*
X841500Y4828420D01*
X837440Y4824740D01*
X833880Y4820560D01*
X830900Y4815980D01*
X828520Y4811040D01*
X826800Y4805840D01*
X825740Y4800460D01*
X825400Y4795000D01*
X825740Y4789540D01*
X826800Y4784160D01*
X828520Y4778960D01*
X830900Y4774020D01*
X833880Y4769440D01*
X835020Y4768080D01*
X843620Y4755480D01*
X844200Y4754180D01*
X844280Y4752780D01*
X843880Y4751440D01*
X841120Y4745880D01*
X840220Y4744700D01*
X838980Y4743940D01*
X837540Y4743660D01*
X835680Y4743660D01*
X832520Y4743360D01*
X829659Y4742480D01*
X827039Y4741080D01*
X824740Y4739200D01*
X822860Y4736900D01*
X821440Y4734280D01*
X820580Y4731420D01*
X820280Y4728260D01*
X820280Y4661740D01*
X820580Y4658580D01*
X821560Y4655360D01*
X821720Y4653880D01*
X821340Y4652460D01*
X820440Y4651260D01*
X819200Y4650480D01*
X817740Y4650200D01*
G37*

%LPC*%
G36*
X373240Y5472020D02*
G01*
X378340Y5474560D01*
X383140Y5477740D01*
X387500Y5481480D01*
X391380Y5485720D01*
X394700Y5490420D01*
X397420Y5495480D01*
X397900Y5496760D01*
X373240Y5496760D01*
G37*
G36*
X673240Y5472020D02*
G01*
X678340Y5474560D01*
X683139Y5477740D01*
X687500Y5481480D01*
X691380Y5485720D01*
X694700Y5490420D01*
X697420Y5495480D01*
X697900Y5496760D01*
X673240Y5496760D01*
G37*
G36*
X1273240Y5472020D02*
G01*
X1278340Y5474560D01*
X1283140Y5477740D01*
X1287500Y5481480D01*
X1291380Y5485720D01*
X1294700Y5490420D01*
X1297420Y5495480D01*
X1297900Y5496760D01*
X1273240Y5496760D01*
G37*
G36*
X636760Y5472120D02*
G01*
X636760Y5496760D01*
X612100Y5496760D01*
X613860Y5492920D01*
X616900Y5488020D01*
X620500Y5483540D01*
X624620Y5479539D01*
X629220Y5476079D01*
X634180Y5473200D01*
G37*
G36*
X336760Y5472120D02*
G01*
X336760Y5496760D01*
X312100Y5496760D01*
X313860Y5492920D01*
X316900Y5488020D01*
X320500Y5483540D01*
X324620Y5479539D01*
X329219Y5476079D01*
X334180Y5473200D01*
G37*
G36*
X1236760Y5472120D02*
G01*
X1236760Y5496760D01*
X1212100Y5496760D01*
X1213860Y5492920D01*
X1216900Y5488020D01*
X1220500Y5483540D01*
X1224620Y5479539D01*
X1229220Y5476079D01*
X1234180Y5473200D01*
G37*
G36*
X936760Y5472120D02*
G01*
X936760Y5496760D01*
X912099Y5496760D01*
X913860Y5492920D01*
X916900Y5488020D01*
X920500Y5483540D01*
X924620Y5479539D01*
X929220Y5476079D01*
X934180Y5473200D01*
G37*
G36*
X312100Y5533240D02*
G01*
X336760Y5533240D01*
X336760Y5557880D01*
X334180Y5556799D01*
X329219Y5553920D01*
X324620Y5550460D01*
X320500Y5546460D01*
X316900Y5541980D01*
X313860Y5537080D01*
G37*
G36*
X612100Y5533240D02*
G01*
X636760Y5533240D01*
X636760Y5557880D01*
X634180Y5556799D01*
X629220Y5553920D01*
X624620Y5550460D01*
X620500Y5546460D01*
X616900Y5541980D01*
X613860Y5537080D01*
G37*
G36*
X1212100Y5533240D02*
G01*
X1236760Y5533240D01*
X1236760Y5557880D01*
X1234180Y5556799D01*
X1229220Y5553920D01*
X1224620Y5550460D01*
X1220500Y5546460D01*
X1216900Y5541980D01*
X1213860Y5537080D01*
G37*
G36*
X912099Y5533240D02*
G01*
X936760Y5533240D01*
X936760Y5557880D01*
X934180Y5556799D01*
X929220Y5553920D01*
X924620Y5550460D01*
X920500Y5546460D01*
X916900Y5541980D01*
X913860Y5537080D01*
G37*
G36*
X673240Y5533240D02*
G01*
X697900Y5533240D01*
X697420Y5534520D01*
X694700Y5539580D01*
X691380Y5544280D01*
X687500Y5548520D01*
X683139Y5552260D01*
X678340Y5555440D01*
X673240Y5557980D01*
G37*
G36*
X373240Y5533240D02*
G01*
X397900Y5533240D01*
X397420Y5534520D01*
X394700Y5539580D01*
X391380Y5544280D01*
X387500Y5548520D01*
X383140Y5552260D01*
X378340Y5555440D01*
X373240Y5557980D01*
G37*
G36*
X1273240Y5533240D02*
G01*
X1297900Y5533240D01*
X1297420Y5534520D01*
X1294700Y5539580D01*
X1291380Y5544280D01*
X1287500Y5548520D01*
X1283140Y5552260D01*
X1278340Y5555440D01*
X1273240Y5557980D01*
G37*
G36*
X373240Y5572020D02*
G01*
X378340Y5574560D01*
X383140Y5577740D01*
X387500Y5581480D01*
X391380Y5585720D01*
X394700Y5590420D01*
X397420Y5595480D01*
X397900Y5596760D01*
X373240Y5596760D01*
G37*
G36*
X336760Y5572120D02*
G01*
X336760Y5596760D01*
X312100Y5596760D01*
X313860Y5592920D01*
X316900Y5588020D01*
X320500Y5583540D01*
X324620Y5579539D01*
X329219Y5576079D01*
X334180Y5573200D01*
G37*
G36*
X312100Y5633240D02*
G01*
X336760Y5633240D01*
X336760Y5657880D01*
X334180Y5656799D01*
X329219Y5653920D01*
X324620Y5650460D01*
X320500Y5646460D01*
X316900Y5641980D01*
X313860Y5637080D01*
G37*
G36*
X373240Y5633240D02*
G01*
X397900Y5633240D01*
X397420Y5634520D01*
X394700Y5639580D01*
X391380Y5644280D01*
X387500Y5648520D01*
X383140Y5652260D01*
X378340Y5655440D01*
X373240Y5657980D01*
G37*

%LPD*%
G36*
X847480Y4776780D02*
G01*
X860639Y4757480D01*
X875639Y4757480D01*
X888820Y4776780D01*
G37*
G36*
X926220Y4776780D02*
G01*
X939380Y4757480D01*
X954380Y4757480D01*
X967560Y4776780D01*
G37*
G36*
X1004960Y4776780D02*
G01*
X1018120Y4757480D01*
X1033120Y4757480D01*
X1046300Y4776780D01*
G37*
G36*
X1083700Y4776780D02*
G01*
X1096880Y4757480D01*
X1111880Y4757480D01*
X1125040Y4776780D01*
G37*
G36*
X1178100Y4832520D02*
G01*
X1162440Y4813220D01*
X1203780Y4813240D01*
X1188100Y4832520D01*
G37*
G36*
X1160980Y4778580D02*
G01*
X1174960Y4758040D01*
X1184960Y4757200D01*
X1202180Y4775100D01*
G37*
G36*
X986440Y5616980D02*
G01*
X953020Y5583560D01*
X981780Y5581140D01*
X988860Y5588220D01*
G37*
G36*
X1086440Y5616980D02*
G01*
X1053020Y5583560D01*
X1081780Y5581140D01*
X1088860Y5588220D01*
G37*
G36*
X1096920Y5239160D02*
G01*
X1088380Y5235000D01*
X1088380Y5225000D01*
X1096920Y5220839D01*
G37*
G36*
X990000Y5096620D02*
G01*
X985840Y5088080D01*
X1004160Y5088080D01*
X1000000Y5096620D01*
G37*
G36*
X1037820Y5200760D02*
G01*
X1034720Y5191780D01*
X1041780Y5184720D01*
X1050760Y5187820D01*
G37*
G36*
X1020000Y5016620D02*
G01*
X1015840Y5008080D01*
X1034160Y5008080D01*
X1030000Y5016620D01*
G37*
G36*
X1016780Y4930280D02*
G01*
X1009720Y4923220D01*
X1012820Y4914240D01*
X1025759Y4927180D01*
G37*
G36*
X1254360Y4750960D02*
G01*
X1243100Y4728460D01*
X1280600Y4728460D01*
X1269360Y4750960D01*
G37*
G36*
X1174960Y4743460D02*
G01*
X1167460Y4728460D01*
X1192460Y4728460D01*
X1184960Y4743460D01*
G37*
G36*
X1096880Y4750960D02*
G01*
X1085620Y4728460D01*
X1123120Y4728460D01*
X1111880Y4750960D01*
G37*
G36*
X1018120Y4750960D02*
G01*
X1006880Y4728460D01*
X1044380Y4728460D01*
X1033120Y4750960D01*
G37*
G36*
X939380Y4750960D02*
G01*
X928139Y4728460D01*
X965639Y4728460D01*
X954380Y4750960D01*
G37*
G36*
X860639Y4750960D02*
G01*
X849400Y4728460D01*
X886900Y4728460D01*
X875639Y4750960D01*
G37*
G36*
X1243100Y4767440D02*
G01*
X1254360Y4744940D01*
X1269360Y4744940D01*
X1280600Y4767440D01*
G37*
D10*
X1101199Y4695000D02*
G01*
X1104399Y4698099D01*
X1104399Y4795000D01*
X1022500Y4695000D02*
G01*
X1025600Y4698099D01*
X1025600Y4795000D01*
X943699Y4695000D02*
G01*
X946899Y4698099D01*
X946899Y4795000D01*
X865000Y4695000D02*
G01*
X868100Y4698099D01*
X868100Y4795000D01*
D11*
X1183100Y4795000D02*
G01*
X1183100Y5196900D01*
X1105000Y5275000D01*
X1105000Y5565000D01*
X1055000Y5615000D01*
X1025000Y4915000D02*
G01*
X960000Y4980000D01*
X960000Y5200000D01*
X1005000Y5245000D01*
X1005000Y5565000D01*
X955000Y5615000D01*
X1180000Y4695000D02*
G01*
X1180000Y4791900D01*
X1183100Y4795000D01*
X1050000Y5200000D02*
G01*
X1025000Y5175000D01*
X1025000Y5000000D01*
X1105000Y5230000D02*
G01*
X1040000Y5230000D01*
X995000Y5185000D01*
X995000Y5080000D01*
D10*
X1258699Y4695000D02*
G01*
X1261899Y4698099D01*
X1261899Y4795000D01*
D12*
G01*
X1258699Y4695000D03*
G01*
X1179960Y4695000D03*
G01*
X1101220Y4695000D03*
G01*
X1022479Y4695000D03*
G01*
X943739Y4695000D03*
G01*
X865000Y4695000D03*
D13*
G01*
X868149Y4795000D03*
G01*
X946890Y4795000D03*
G01*
X1025630Y4795000D03*
G01*
X1104369Y4795000D03*
G01*
X1183109Y4795000D03*
D14*
G01*
X1261850Y4795000D03*
D15*
G01*
X355000Y5515000D03*
G01*
X355000Y5615000D03*
G01*
X455000Y5515000D03*
G01*
X455000Y5615000D03*
G01*
X555000Y5515000D03*
G01*
X555000Y5615000D03*
G01*
X655000Y5515000D03*
G01*
X655000Y5615000D03*
G01*
X755000Y5515000D03*
G01*
X755000Y5615000D03*
G01*
X855000Y5515000D03*
G01*
X855000Y5615000D03*
G01*
X955000Y5515000D03*
G01*
X955000Y5615000D03*
G01*
X1055000Y5515000D03*
G01*
X1055000Y5615000D03*
G01*
X1155000Y5515000D03*
G01*
X1155000Y5615000D03*
G01*
X1255000Y5515000D03*
D16*
G01*
X1255000Y5615000D03*
D18*
G01*
X1105000Y5230000D03*
G01*
X995000Y5080000D03*
G01*
X1050000Y5200000D03*
G01*
X1025000Y5000000D03*
G01*
X1025000Y4915000D03*
D19*
G01*
X730000Y4975000D03*
G01*
X670000Y4975000D03*
G01*
X670000Y5035000D03*
G01*
X730000Y5035000D03*
G01*
X805000Y5040000D03*
G01*
X566700Y5436039D03*
G01*
X566700Y5336039D03*
G01*
X566700Y5236039D03*
G01*
X666700Y5436039D03*
G01*
X666700Y5336039D03*
G01*
X666700Y5236039D03*
G01*
X766700Y5436039D03*
G01*
X766700Y5336039D03*
G01*
X766700Y5236039D03*
G01*
X866700Y5436039D03*
G01*
X866700Y5336039D03*
G01*
X866700Y5236039D03*
G01*
X966700Y5436039D03*
G01*
X966700Y5336039D03*
G01*
X314200Y5735799D03*
G01*
X314200Y5435799D03*
G01*
X314200Y5335799D03*
G01*
X314200Y5235799D03*
G01*
X314200Y4835799D03*
G01*
X314200Y4735799D03*
G01*
X414200Y5735799D03*
G01*
X414200Y5435799D03*
G01*
X414200Y5335799D03*
G01*
X414200Y5235799D03*
G01*
X414200Y5135799D03*
G01*
X414200Y4835799D03*
G01*
X414200Y4735799D03*
G01*
X514200Y5735799D03*
G01*
X514200Y4835799D03*
G01*
X514200Y4735799D03*
G01*
X614200Y5735799D03*
G01*
X614200Y4835799D03*
G01*
X614200Y4735799D03*
G01*
X714200Y5735799D03*
G01*
X714200Y4835799D03*
G01*
X714200Y4735799D03*
G01*
X814200Y5735799D03*
G01*
X814200Y4735799D03*
G01*
X914200Y5735799D03*
G01*
X1014200Y5735799D03*
G01*
X1114200Y5735799D03*
G01*
X1214200Y5735799D03*
M02*
