G04 Layer: TopSilkscreenLayer*
G04 EasyEDA v6.5.51, 2026-03-09 22:52:25*
G04 0745c895f26143998560ae4054ea86cb,b1bcf93fc2fa47b09c31a7f573604e75,10*
G04 Gerber Generator version 0.2*
G04 Scale: 100 percent, Rotated: No, Reflected: No *
G04 Dimensions in inches *
G04 leading zeros omitted , absolute positions ,3 integer and 6 decimal *
%FSLAX36Y36*%
%MOIN*%

%ADD10C,0.0060*%
%ADD11C,0.0079*%
%ADD12C,0.0100*%
%ADD13C,0.0098*%
%ADD14C,0.0114*%

%LPD*%
D10*
X1275399Y5752300D02*
G01*
X1237200Y5752300D01*
X1275399Y5765000D02*
G01*
X1275399Y5739499D01*
X1275399Y5727500D02*
G01*
X1237200Y5727500D01*
X1275399Y5727500D02*
G01*
X1275399Y5714800D01*
X1273500Y5709400D01*
X1269899Y5705700D01*
X1266300Y5703899D01*
X1260799Y5702100D01*
X1251700Y5702100D01*
X1246300Y5703899D01*
X1242600Y5705700D01*
X1238999Y5709400D01*
X1237200Y5714800D01*
X1237200Y5727500D01*
X1275399Y5690100D02*
G01*
X1237200Y5690100D01*
X361300Y5417700D02*
G01*
X364899Y5419499D01*
X368499Y5423200D01*
X370399Y5426799D01*
X370399Y5434099D01*
X368499Y5437700D01*
X364899Y5441399D01*
X361300Y5443200D01*
X355799Y5445000D01*
X346700Y5445000D01*
X341300Y5443200D01*
X337600Y5441399D01*
X334000Y5437700D01*
X332199Y5434099D01*
X332199Y5426799D01*
X334000Y5423200D01*
X337600Y5419499D01*
X341300Y5417700D01*
X346700Y5417700D01*
X346700Y5426799D02*
G01*
X346700Y5417700D01*
X370399Y5405700D02*
G01*
X332199Y5405700D01*
X370399Y5405700D02*
G01*
X332199Y5380300D01*
X370399Y5380300D02*
G01*
X332199Y5380300D01*
X370399Y5368299D02*
G01*
X332199Y5368299D01*
X370399Y5368299D02*
G01*
X370399Y5355500D01*
X368499Y5350100D01*
X364899Y5346500D01*
X361300Y5344600D01*
X355799Y5342800D01*
X346700Y5342800D01*
X341300Y5344600D01*
X337600Y5346500D01*
X334000Y5350100D01*
X332199Y5355500D01*
X332199Y5368299D01*
X1170399Y5767300D02*
G01*
X1132200Y5767300D01*
X1170399Y5780000D02*
G01*
X1170399Y5754499D01*
X1170399Y5742500D02*
G01*
X1132200Y5742500D01*
X1170399Y5742500D02*
G01*
X1170399Y5729800D01*
X1168500Y5724400D01*
X1164899Y5720700D01*
X1161300Y5718899D01*
X1155799Y5717100D01*
X1146700Y5717100D01*
X1141300Y5718899D01*
X1137600Y5720700D01*
X1133999Y5724400D01*
X1132200Y5729800D01*
X1132200Y5742500D01*
X1170399Y5694200D02*
G01*
X1168500Y5697800D01*
X1164899Y5701500D01*
X1161300Y5703299D01*
X1155799Y5705100D01*
X1146700Y5705100D01*
X1141300Y5703299D01*
X1137600Y5701500D01*
X1133999Y5697800D01*
X1132200Y5694200D01*
X1132200Y5686900D01*
X1133999Y5683299D01*
X1137600Y5679600D01*
X1141300Y5677800D01*
X1146700Y5675999D01*
X1155799Y5675999D01*
X1161300Y5677800D01*
X1164899Y5679600D01*
X1168500Y5683299D01*
X1170399Y5686900D01*
X1170399Y5694200D01*
X1070399Y5767300D02*
G01*
X1032200Y5767300D01*
X1070399Y5780000D02*
G01*
X1070399Y5754499D01*
X1061300Y5715300D02*
G01*
X1064899Y5717100D01*
X1068500Y5720700D01*
X1070399Y5724400D01*
X1070399Y5731599D01*
X1068500Y5735300D01*
X1064899Y5738899D01*
X1061300Y5740700D01*
X1055799Y5742500D01*
X1046700Y5742500D01*
X1041300Y5740700D01*
X1037600Y5738899D01*
X1033999Y5735300D01*
X1032200Y5731599D01*
X1032200Y5724400D01*
X1033999Y5720700D01*
X1037600Y5717100D01*
X1041300Y5715300D01*
X1070399Y5703299D02*
G01*
X1032200Y5703299D01*
X1070399Y5677800D02*
G01*
X1044899Y5703299D01*
X1053999Y5694200D02*
G01*
X1032200Y5677800D01*
X970399Y5767300D02*
G01*
X932200Y5767300D01*
X970399Y5780000D02*
G01*
X970399Y5754499D01*
X970399Y5742500D02*
G01*
X932200Y5742500D01*
X970399Y5742500D02*
G01*
X932200Y5728000D01*
X970399Y5713499D02*
G01*
X932200Y5728000D01*
X970399Y5713499D02*
G01*
X932200Y5713499D01*
X964899Y5675999D02*
G01*
X968500Y5679600D01*
X970399Y5685100D01*
X970399Y5692399D01*
X968500Y5697800D01*
X964899Y5701500D01*
X961300Y5701500D01*
X957600Y5699600D01*
X955799Y5697800D01*
X953999Y5694200D01*
X950399Y5683299D01*
X948500Y5679600D01*
X946700Y5677800D01*
X943100Y5675999D01*
X937600Y5675999D01*
X933999Y5679600D01*
X932200Y5685100D01*
X932200Y5692399D01*
X933999Y5697800D01*
X937600Y5701500D01*
X661300Y5417700D02*
G01*
X664899Y5419499D01*
X668499Y5423200D01*
X670399Y5426799D01*
X670399Y5434099D01*
X668499Y5437700D01*
X664899Y5441399D01*
X661300Y5443200D01*
X655799Y5445000D01*
X646700Y5445000D01*
X641300Y5443200D01*
X637600Y5441399D01*
X634000Y5437700D01*
X632199Y5434099D01*
X632199Y5426799D01*
X634000Y5423200D01*
X637600Y5419499D01*
X641300Y5417700D01*
X646700Y5417700D01*
X646700Y5426799D02*
G01*
X646700Y5417700D01*
X670399Y5405700D02*
G01*
X632199Y5405700D01*
X670399Y5405700D02*
G01*
X632199Y5380300D01*
X670399Y5380300D02*
G01*
X632199Y5380300D01*
X670399Y5368299D02*
G01*
X632199Y5368299D01*
X670399Y5368299D02*
G01*
X670399Y5355500D01*
X668499Y5350100D01*
X664899Y5346500D01*
X661300Y5344600D01*
X655799Y5342800D01*
X646700Y5342800D01*
X641300Y5344600D01*
X637600Y5346500D01*
X634000Y5350100D01*
X632199Y5355500D01*
X632199Y5368299D01*
X961300Y5417700D02*
G01*
X964899Y5419499D01*
X968500Y5423200D01*
X970399Y5426799D01*
X970399Y5434099D01*
X968500Y5437700D01*
X964899Y5441399D01*
X961300Y5443200D01*
X955799Y5445000D01*
X946700Y5445000D01*
X941300Y5443200D01*
X937600Y5441399D01*
X933999Y5437700D01*
X932200Y5434099D01*
X932200Y5426799D01*
X933999Y5423200D01*
X937600Y5419499D01*
X941300Y5417700D01*
X946700Y5417700D01*
X946700Y5426799D02*
G01*
X946700Y5417700D01*
X970399Y5405700D02*
G01*
X932200Y5405700D01*
X970399Y5405700D02*
G01*
X932200Y5380300D01*
X970399Y5380300D02*
G01*
X932200Y5380300D01*
X970399Y5368299D02*
G01*
X932200Y5368299D01*
X970399Y5368299D02*
G01*
X970399Y5355500D01*
X968500Y5350100D01*
X964899Y5346500D01*
X961300Y5344600D01*
X955799Y5342800D01*
X946700Y5342800D01*
X941300Y5344600D01*
X937600Y5346500D01*
X933999Y5350100D01*
X932200Y5355500D01*
X932200Y5368299D01*
X1261300Y5417700D02*
G01*
X1264899Y5419499D01*
X1268500Y5423200D01*
X1270399Y5426799D01*
X1270399Y5434099D01*
X1268500Y5437700D01*
X1264899Y5441399D01*
X1261300Y5443200D01*
X1255799Y5445000D01*
X1246700Y5445000D01*
X1241300Y5443200D01*
X1237600Y5441399D01*
X1233999Y5437700D01*
X1232200Y5434099D01*
X1232200Y5426799D01*
X1233999Y5423200D01*
X1237600Y5419499D01*
X1241300Y5417700D01*
X1246700Y5417700D01*
X1246700Y5426799D02*
G01*
X1246700Y5417700D01*
X1270399Y5405700D02*
G01*
X1232200Y5405700D01*
X1270399Y5405700D02*
G01*
X1232200Y5380300D01*
X1270399Y5380300D02*
G01*
X1232200Y5380300D01*
X1270399Y5368299D02*
G01*
X1232200Y5368299D01*
X1270399Y5368299D02*
G01*
X1270399Y5355500D01*
X1268500Y5350100D01*
X1264899Y5346500D01*
X1261300Y5344600D01*
X1255799Y5342800D01*
X1246700Y5342800D01*
X1241300Y5344600D01*
X1237600Y5346500D01*
X1233999Y5350100D01*
X1232200Y5355500D01*
X1232200Y5368299D01*
X292699Y5205400D02*
G01*
X292699Y5167199D01*
X280000Y5205400D02*
G01*
X305500Y5205400D01*
X317500Y5205400D02*
G01*
X317500Y5167199D01*
X317500Y5167199D02*
G01*
X339299Y5167199D01*
X376700Y5205400D02*
G01*
X358499Y5167199D01*
X351300Y5205400D02*
G01*
X376700Y5205400D01*
X410500Y5199899D02*
G01*
X408699Y5203499D01*
X403299Y5205400D01*
X399600Y5205400D01*
X394200Y5203499D01*
X390500Y5198099D01*
X388699Y5189000D01*
X388699Y5179899D01*
X390500Y5172600D01*
X394200Y5169000D01*
X399600Y5167199D01*
X401500Y5167199D01*
X406900Y5169000D01*
X410500Y5172600D01*
X412399Y5178099D01*
X412399Y5179899D01*
X410500Y5185400D01*
X406900Y5189000D01*
X401500Y5190799D01*
X399600Y5190799D01*
X394200Y5189000D01*
X390500Y5185400D01*
X388699Y5179899D01*
X435300Y5205400D02*
G01*
X429800Y5203499D01*
X426199Y5198099D01*
X424400Y5189000D01*
X424400Y5183499D01*
X426199Y5174499D01*
X429800Y5169000D01*
X435300Y5167199D01*
X438899Y5167199D01*
X444400Y5169000D01*
X448000Y5174499D01*
X449800Y5183499D01*
X449800Y5189000D01*
X448000Y5198099D01*
X444400Y5203499D01*
X438899Y5205400D01*
X435300Y5205400D01*
X461799Y5205400D02*
G01*
X461799Y5167199D01*
X461799Y5205400D02*
G01*
X476399Y5167199D01*
X490900Y5205400D02*
G01*
X476399Y5167199D01*
X490900Y5205400D02*
G01*
X490900Y5167199D01*
X506500Y5205400D02*
G01*
X526500Y5205400D01*
X515599Y5190799D01*
X521100Y5190799D01*
X524699Y5189000D01*
X526500Y5187199D01*
X528400Y5181700D01*
X528400Y5178099D01*
X526500Y5172600D01*
X522899Y5169000D01*
X517500Y5167199D01*
X511999Y5167199D01*
X506500Y5169000D01*
X504699Y5170799D01*
X502899Y5174499D01*
X544000Y5205400D02*
G01*
X564000Y5205400D01*
X553099Y5190799D01*
X558499Y5190799D01*
X562199Y5189000D01*
X564000Y5187199D01*
X565799Y5181700D01*
X565799Y5178099D01*
X564000Y5172600D01*
X560399Y5169000D01*
X554899Y5167199D01*
X549499Y5167199D01*
X544000Y5169000D01*
X542199Y5170799D01*
X540399Y5174499D01*
X791899Y5085000D02*
G01*
X790100Y5088600D01*
X784600Y5094099D01*
X822799Y5094099D01*
X784600Y5116999D02*
G01*
X786499Y5111500D01*
X791899Y5107900D01*
X801000Y5106100D01*
X806499Y5106100D01*
X815500Y5107900D01*
X821000Y5111500D01*
X822799Y5116999D01*
X822799Y5120599D01*
X821000Y5126100D01*
X815500Y5129699D01*
X806499Y5131500D01*
X801000Y5131500D01*
X791899Y5129699D01*
X786499Y5126100D01*
X784600Y5120599D01*
X784600Y5116999D01*
X797399Y5143499D02*
G01*
X815500Y5143499D01*
X821000Y5145400D01*
X822799Y5149000D01*
X822799Y5154499D01*
X821000Y5158099D01*
X815500Y5163499D01*
X797399Y5163499D02*
G01*
X822799Y5163499D01*
X784600Y5175500D02*
G01*
X822799Y5175500D01*
X784600Y5175500D02*
G01*
X784600Y5199200D01*
X802799Y5175500D02*
G01*
X802799Y5190100D01*
X876899Y5170000D02*
G01*
X875100Y5173600D01*
X869600Y5179099D01*
X907799Y5179099D01*
X869600Y5201999D02*
G01*
X871499Y5196500D01*
X876899Y5192900D01*
X886000Y5191100D01*
X891499Y5191100D01*
X900500Y5192900D01*
X906000Y5196500D01*
X907799Y5201999D01*
X907799Y5205599D01*
X906000Y5211100D01*
X900500Y5214699D01*
X891499Y5216500D01*
X886000Y5216500D01*
X876899Y5214699D01*
X871499Y5211100D01*
X869600Y5205599D01*
X869600Y5201999D01*
X882399Y5228499D02*
G01*
X900500Y5228499D01*
X906000Y5230400D01*
X907799Y5234000D01*
X907799Y5239499D01*
X906000Y5243099D01*
X900500Y5248499D01*
X882399Y5248499D02*
G01*
X907799Y5248499D01*
X869600Y5260500D02*
G01*
X907799Y5260500D01*
X869600Y5260500D02*
G01*
X869600Y5284200D01*
X887799Y5260500D02*
G01*
X887799Y5275100D01*
X1220000Y5105400D02*
G01*
X1220000Y5067199D01*
X1220000Y5105400D02*
G01*
X1245500Y5067199D01*
X1245500Y5105400D02*
G01*
X1245500Y5067199D01*
X1284700Y5096300D02*
G01*
X1282899Y5099899D01*
X1279300Y5103499D01*
X1275600Y5105400D01*
X1268400Y5105400D01*
X1264700Y5103499D01*
X1261099Y5099899D01*
X1259300Y5096300D01*
X1257500Y5090799D01*
X1257500Y5081700D01*
X1259300Y5076300D01*
X1261099Y5072600D01*
X1264700Y5069000D01*
X1268400Y5067199D01*
X1275600Y5067199D01*
X1279300Y5069000D01*
X1282899Y5072600D01*
X1284700Y5076300D01*
X1220000Y5020400D02*
G01*
X1220000Y4982199D01*
X1220000Y5020400D02*
G01*
X1245500Y4982199D01*
X1245500Y5020400D02*
G01*
X1245500Y4982199D01*
X1284700Y5011300D02*
G01*
X1282899Y5014899D01*
X1279300Y5018499D01*
X1275600Y5020400D01*
X1268400Y5020400D01*
X1264700Y5018499D01*
X1261099Y5014899D01*
X1259300Y5011300D01*
X1257500Y5005799D01*
X1257500Y4996700D01*
X1259300Y4991300D01*
X1261099Y4987600D01*
X1264700Y4984000D01*
X1268400Y4982199D01*
X1275600Y4982199D01*
X1279300Y4984000D01*
X1282899Y4987600D01*
X1284700Y4991300D01*
X1220000Y4935400D02*
G01*
X1220000Y4897199D01*
X1220000Y4935400D02*
G01*
X1245500Y4897199D01*
X1245500Y4935400D02*
G01*
X1245500Y4897199D01*
X1284700Y4926300D02*
G01*
X1282899Y4929899D01*
X1279300Y4933499D01*
X1275600Y4935400D01*
X1268400Y4935400D01*
X1264700Y4933499D01*
X1261099Y4929899D01*
X1259300Y4926300D01*
X1257500Y4920799D01*
X1257500Y4911700D01*
X1259300Y4906300D01*
X1261099Y4902600D01*
X1264700Y4899000D01*
X1268400Y4897199D01*
X1275600Y4897199D01*
X1279300Y4899000D01*
X1282899Y4902600D01*
X1284700Y4906300D01*
X400000Y4710400D02*
G01*
X425500Y4672199D01*
X425500Y4710400D02*
G01*
X400000Y4672199D01*
X437500Y4710400D02*
G01*
X437500Y4672199D01*
X437500Y4710400D02*
G01*
X450199Y4710400D01*
X455599Y4708499D01*
X459299Y4704899D01*
X461100Y4701300D01*
X462899Y4695799D01*
X462899Y4686700D01*
X461100Y4681300D01*
X459299Y4677600D01*
X455599Y4674000D01*
X450199Y4672199D01*
X437500Y4672199D01*
X500399Y4704899D02*
G01*
X496700Y4708499D01*
X491300Y4710400D01*
X484000Y4710400D01*
X478499Y4708499D01*
X474899Y4704899D01*
X474899Y4701300D01*
X476700Y4697600D01*
X478499Y4695799D01*
X482199Y4694000D01*
X493099Y4690400D01*
X496700Y4688499D01*
X498499Y4686700D01*
X500399Y4683099D01*
X500399Y4677600D01*
X496700Y4674000D01*
X491300Y4672199D01*
X484000Y4672199D01*
X478499Y4674000D01*
X474899Y4677600D01*
X512399Y4703099D02*
G01*
X515999Y4704899D01*
X521500Y4710400D01*
X521500Y4672199D01*
X533499Y4703099D02*
G01*
X537100Y4704899D01*
X542500Y4710400D01*
X542500Y4672199D01*
X565500Y4710400D02*
G01*
X560000Y4708499D01*
X556399Y4703099D01*
X554499Y4694000D01*
X554499Y4688499D01*
X556399Y4679499D01*
X560000Y4674000D01*
X565500Y4672199D01*
X569099Y4672199D01*
X574499Y4674000D01*
X578200Y4679499D01*
X580000Y4688499D01*
X580000Y4694000D01*
X578200Y4703099D01*
X574499Y4708499D01*
X569099Y4710400D01*
X565500Y4710400D01*
X591999Y4710400D02*
G01*
X591999Y4672199D01*
X591999Y4710400D02*
G01*
X615599Y4710400D01*
X591999Y4692199D02*
G01*
X606500Y4692199D01*
X591999Y4672199D02*
G01*
X615599Y4672199D01*
X640399Y4710400D02*
G01*
X640399Y4672199D01*
X627600Y4710400D02*
G01*
X653099Y4710400D01*
X707600Y4710400D02*
G01*
X693099Y4672199D01*
X707600Y4710400D02*
G01*
X722199Y4672199D01*
X698499Y4684899D02*
G01*
X716700Y4684899D01*
X755999Y4710400D02*
G01*
X755999Y4672199D01*
X755999Y4692199D02*
G01*
X752399Y4695799D01*
X748699Y4697600D01*
X743299Y4697600D01*
X739600Y4695799D01*
X735999Y4692199D01*
X734200Y4686700D01*
X734200Y4683099D01*
X735999Y4677600D01*
X739600Y4674000D01*
X743299Y4672199D01*
X748699Y4672199D01*
X752399Y4674000D01*
X755999Y4677600D01*
X789799Y4697600D02*
G01*
X789799Y4672199D01*
X789799Y4692199D02*
G01*
X786199Y4695799D01*
X782500Y4697600D01*
X777100Y4697600D01*
X773500Y4695799D01*
X769799Y4692199D01*
X768000Y4686700D01*
X768000Y4683099D01*
X769799Y4677600D01*
X773500Y4674000D01*
X777100Y4672199D01*
X782500Y4672199D01*
X786199Y4674000D01*
X789799Y4677600D01*
X801800Y4697600D02*
G01*
X801800Y4659499D01*
X801800Y4692199D02*
G01*
X805500Y4695799D01*
X809099Y4697600D01*
X814499Y4697600D01*
X818199Y4695799D01*
X821800Y4692199D01*
X823599Y4686700D01*
X823599Y4683099D01*
X821800Y4677600D01*
X818199Y4674000D01*
X814499Y4672199D01*
X809099Y4672199D01*
X805500Y4674000D01*
X801800Y4677600D01*
X841099Y4710400D02*
G01*
X841099Y4679499D01*
X842899Y4674000D01*
X846499Y4672199D01*
X850200Y4672199D01*
X835600Y4697600D02*
G01*
X848400Y4697600D01*
X862200Y4686700D02*
G01*
X883999Y4686700D01*
X883999Y4690400D01*
X882200Y4694000D01*
X880399Y4695799D01*
X876700Y4697600D01*
X871300Y4697600D01*
X867600Y4695799D01*
X863999Y4692199D01*
X862200Y4686700D01*
X862200Y4683099D01*
X863999Y4677600D01*
X867600Y4674000D01*
X871300Y4672199D01*
X876700Y4672199D01*
X880399Y4674000D01*
X883999Y4677600D01*
X896000Y4697600D02*
G01*
X896000Y4672199D01*
X896000Y4686700D02*
G01*
X897799Y4692199D01*
X901499Y4695799D01*
X905100Y4697600D01*
X910500Y4697600D01*
X950500Y4710400D02*
G01*
X965100Y4672199D01*
X979600Y4710400D02*
G01*
X965100Y4672199D01*
X993500Y4701300D02*
G01*
X993500Y4703099D01*
X995299Y4706700D01*
X997100Y4708499D01*
X1000699Y4710400D01*
X1008000Y4710400D01*
X1011599Y4708499D01*
X1013500Y4706700D01*
X1015299Y4703099D01*
X1015299Y4699499D01*
X1013500Y4695799D01*
X1009799Y4690400D01*
X991599Y4672199D01*
X1017100Y4672199D01*
X1057100Y4710400D02*
G01*
X1057100Y4672199D01*
X1057100Y4692199D02*
G01*
X1060699Y4695799D01*
X1064399Y4697600D01*
X1069799Y4697600D01*
X1073500Y4695799D01*
X1077100Y4692199D01*
X1078900Y4686700D01*
X1078900Y4683099D01*
X1077100Y4677600D01*
X1073500Y4674000D01*
X1069799Y4672199D01*
X1064399Y4672199D01*
X1060699Y4674000D01*
X1057100Y4677600D01*
X1092700Y4697600D02*
G01*
X1103599Y4672199D01*
X1114499Y4697600D02*
G01*
X1103599Y4672199D01*
X1100000Y4664899D01*
X1096400Y4661300D01*
X1092700Y4659499D01*
X1090900Y4659499D01*
X1154499Y4710400D02*
G01*
X1154499Y4672199D01*
X1180000Y4710400D02*
G01*
X1180000Y4672199D01*
X1154499Y4692199D02*
G01*
X1180000Y4692199D01*
X1191999Y4710400D02*
G01*
X1191999Y4672199D01*
X1217500Y4710400D02*
G01*
X1217500Y4672199D01*
X1191999Y4692199D02*
G01*
X1217500Y4692199D01*
D11*
X558800Y5131900D02*
G01*
X596199Y5131900D01*
X596199Y4868099D01*
X558800Y4868099D01*
D10*
X769425Y5021307D02*
G01*
X769425Y4965794D01*
X840574Y4965794D02*
G01*
X840574Y5021307D01*
X834575Y5027307D02*
G01*
X775424Y5027307D01*
X769425Y4878692D02*
G01*
X769425Y4934205D01*
X840574Y4934205D02*
G01*
X840574Y4878692D01*
X834575Y4872692D02*
G01*
X775424Y4872692D01*
X859425Y5121307D02*
G01*
X859425Y5065794D01*
X930574Y5065794D02*
G01*
X930574Y5121307D01*
X924575Y5127307D02*
G01*
X865424Y5127307D01*
X859425Y4978692D02*
G01*
X859425Y5034205D01*
X930574Y5034205D02*
G01*
X930574Y4978692D01*
X924575Y4972692D02*
G01*
X865424Y4972692D01*
D12*
X1221260Y4755000D02*
G01*
X1221260Y4830000D01*
X1301220Y4755630D02*
G01*
X828779Y4755630D01*
X828779Y4834369D01*
X1301220Y4834369D01*
X1301220Y4755630D01*
D10*
X1148748Y4963892D02*
G01*
X1199336Y4963892D01*
X1199336Y5036104D01*
X1148748Y5036104D01*
X1111252Y4963892D02*
G01*
X1060664Y4963892D01*
X1060664Y5036104D01*
X1111252Y5036104D01*
X1148748Y5048892D02*
G01*
X1199336Y5048892D01*
X1199336Y5121104D01*
X1148748Y5121104D01*
X1111252Y5048892D02*
G01*
X1060664Y5048892D01*
X1060664Y5121104D01*
X1111252Y5121104D01*
X1148747Y4878894D02*
G01*
X1199336Y4878894D01*
X1199336Y4951106D01*
X1148747Y4951106D01*
X1111252Y4878894D02*
G01*
X1060663Y4878894D01*
X1060663Y4951106D01*
X1111252Y4951106D01*
D12*
X295158Y5466574D02*
G01*
X295158Y5663425D01*
X1314840Y5466574D02*
G01*
X1314840Y5663425D01*
X295158Y5663425D02*
G01*
X1314841Y5663425D01*
X1314840Y5466574D02*
G01*
X295158Y5466574D01*
D13*
G75*
G01*
X680900Y4872400D02*
G03*
X681000Y4872400I50J-4900D01*
D10*
G75*
G01*
X840575Y5021307D02*
G03*
X834575Y5027307I-6000J0D01*
G75*
G01*
X775425Y5027307D02*
G03*
X769425Y5021307I0J-6000D01*
G75*
G01*
X840575Y4878693D02*
G02*
X834575Y4872693I-6000J0D01*
G75*
G01*
X775425Y4872693D02*
G02*
X769425Y4878693I0J6000D01*
G75*
G01*
X930575Y5121307D02*
G03*
X924575Y5127307I-6000J0D01*
G75*
G01*
X865425Y5127307D02*
G03*
X859425Y5121307I0J-6000D01*
G75*
G01*
X930575Y4978693D02*
G02*
X924575Y4972693I-6000J0D01*
G75*
G01*
X865425Y4972693D02*
G02*
X859425Y4978693I0J6000D01*
M02*
